<svg width="20" height="20" viewBox="0 0 20 20" fill="none" xmlns="http://www.w3.org/2000/svg">
<path d="M15.9375 4.375H7.1875C6.44158 4.375 5.72621 4.67132 5.19876 5.19876C4.67132 5.72621 4.375 6.44158 4.375 7.1875V15.9375C4.375 16.6834 4.67132 17.3988 5.19876 17.9262C5.72621 18.4537 6.44158 18.75 7.1875 18.75H15.9375C16.6834 18.75 17.3988 18.4537 17.9262 17.9262C18.4537 17.3988 18.75 16.6834 18.75 15.9375V7.1875C18.75 6.44158 18.4537 5.72621 17.9262 5.19876C17.3988 4.67132 16.6834 4.375 15.9375 4.375ZM14.6699 12.1875H12.1875V14.6699C12.1875 15.0062 11.9289 15.2949 11.5926 15.3117C11.5081 15.3158 11.4236 15.3027 11.3443 15.2731C11.2651 15.2436 11.1926 15.1983 11.1313 15.1399C11.0701 15.0815 11.0213 15.0114 10.988 14.9336C10.9547 14.8558 10.9375 14.7721 10.9375 14.6875V12.1875H8.45508C8.11875 12.1875 7.83008 11.9289 7.81328 11.5926C7.80921 11.5081 7.82234 11.4236 7.85187 11.3443C7.8814 11.2651 7.92672 11.1926 7.98509 11.1313C8.04345 11.0701 8.11364 11.0213 8.19141 10.988C8.26917 10.9547 8.3529 10.9375 8.4375 10.9375H10.9375V8.45508C10.9375 8.11875 11.1961 7.83008 11.5324 7.81328C11.6169 7.80921 11.7014 7.82234 11.7807 7.85187C11.8599 7.8814 11.9324 7.92672 11.9937 7.98509C12.0549 8.04345 12.1037 8.11364 12.137 8.19141C12.1703 8.26917 12.1875 8.3529 12.1875 8.4375V10.9375H14.6875C14.7722 10.9374 14.856 10.9545 14.9338 10.9878C15.0117 11.0211 15.082 11.0698 15.1404 11.1311C15.1989 11.1923 15.2443 11.2648 15.2738 11.3442C15.3034 11.4235 15.3166 11.508 15.3125 11.5926C15.2961 11.9289 15.0062 12.1875 14.6699 12.1875Z" fill="#919EAB"/>
<path d="M15.4641 3.125C15.2696 2.57705 14.9104 2.10268 14.4356 1.76699C13.9609 1.43129 13.3939 1.2507 12.8125 1.25H4.0625C3.31658 1.25 2.60121 1.54632 2.07376 2.07376C1.54632 2.60121 1.25 3.31658 1.25 4.0625V12.8125C1.2507 13.3939 1.43129 13.9609 1.76699 14.4356C2.10268 14.9104 2.57705 15.2696 3.125 15.4641V6.25C3.125 5.4212 3.45424 4.62634 4.04029 4.04029C4.62634 3.45424 5.4212 3.125 6.25 3.125H15.4641Z" fill="#919EAB"/>
</svg>
