<svg width="20" height="20" viewBox="0 0 20 20" fill="none" xmlns="http://www.w3.org/2000/svg">
<path d="M17.5 5.00001H13.3334V3.60834C13.3138 3.07486 13.0835 2.57089 12.693 2.20692C12.3025 1.84295 11.7836 1.64867 11.25 1.66668H8.75002C8.21648 1.64867 7.69757 1.84295 7.30704 2.20692C6.91652 2.57089 6.68624 3.07486 6.66669 3.60834V5.00001H2.50002C2.27901 5.00001 2.06704 5.08781 1.91076 5.24409C1.75448 5.40037 1.66669 5.61233 1.66669 5.83334C1.66669 6.05436 1.75448 6.26632 1.91076 6.4226C2.06704 6.57888 2.27901 6.66668 2.50002 6.66668H3.33335V15.8333C3.33335 16.4964 3.59675 17.1323 4.06559 17.6011C4.53443 18.07 5.17031 18.3333 5.83335 18.3333H14.1667C14.8297 18.3333 15.4656 18.07 15.9345 17.6011C16.4033 17.1323 16.6667 16.4964 16.6667 15.8333V6.66668H17.5C17.721 6.66668 17.933 6.57888 18.0893 6.4226C18.2456 6.26632 18.3334 6.05436 18.3334 5.83334C18.3334 5.61233 18.2456 5.40037 18.0893 5.24409C17.933 5.08781 17.721 5.00001 17.5 5.00001ZM8.33335 3.60834C8.33335 3.47501 8.50835 3.33334 8.75002 3.33334H11.25C11.4917 3.33334 11.6667 3.47501 11.6667 3.60834V5.00001H8.33335V3.60834ZM15 15.8333C15 16.0544 14.9122 16.2663 14.7559 16.4226C14.5997 16.5789 14.3877 16.6667 14.1667 16.6667H5.83335C5.61234 16.6667 5.40038 16.5789 5.2441 16.4226C5.08782 16.2663 5.00002 16.0544 5.00002 15.8333V6.66668H15V15.8333Z" fill="#919EAB"/>
<path d="M7.50002 14.1665C7.72103 14.1665 7.933 14.0787 8.08928 13.9224C8.24556 13.7661 8.33335 13.5542 8.33335 13.3332V9.99984C8.33335 9.77882 8.24556 9.56686 8.08928 9.41058C7.933 9.2543 7.72103 9.1665 7.50002 9.1665C7.27901 9.1665 7.06705 9.2543 6.91076 9.41058C6.75448 9.56686 6.66669 9.77882 6.66669 9.99984V13.3332C6.66669 13.5542 6.75448 13.7661 6.91076 13.9224C7.06705 14.0787 7.27901 14.1665 7.50002 14.1665Z" fill="#919EAB"/>
<path d="M12.5 14.1665C12.721 14.1665 12.933 14.0787 13.0893 13.9224C13.2456 13.7661 13.3334 13.5542 13.3334 13.3332V9.99984C13.3334 9.77882 13.2456 9.56686 13.0893 9.41058C12.933 9.2543 12.721 9.1665 12.5 9.1665C12.279 9.1665 12.067 9.2543 11.9108 9.41058C11.7545 9.56686 11.6667 9.77882 11.6667 9.99984V13.3332C11.6667 13.5542 11.7545 13.7661 11.9108 13.9224C12.067 14.0787 12.279 14.1665 12.5 14.1665Z" fill="#919EAB"/>
</svg>
