<svg width="20" height="20" viewBox="0 0 20 20" fill="none" xmlns="http://www.w3.org/2000/svg">
<path fill-rule="evenodd" clip-rule="evenodd" d="M13.8833 3.83322L16.1667 6.11655C16.805 6.72469 16.8311 7.7346 16.225 8.37488L8.72501 15.8749C8.45337 16.1442 8.09734 16.312 7.71667 16.3499L4.24167 16.6665H4.16667C3.94517 16.6678 3.73227 16.5809 3.57501 16.4249C3.3992 16.2497 3.31061 16.0053 3.33334 15.7582L3.69167 12.2832C3.72959 11.9026 3.89731 11.5465 4.16667 11.2749L11.6667 3.77488C12.3132 3.22868 13.2664 3.25376 13.8833 3.83322ZM11.1 6.66655L13.3333 8.89988L15 7.27488L12.725 4.99988L11.1 6.66655Z" fill="#919EAB"/>
</svg>
